<svg width="32" height="32" viewBox="0 0 32 32" fill="none" xmlns="http://www.w3.org/2000/svg">
<path d="M24 17.5734V13.3334C23.9981 11.4442 23.3276 9.61662 22.1075 8.17436C20.8873 6.7321 19.196 5.76819 17.3333 5.45333V3.99999C17.3333 3.64638 17.1928 3.30724 16.9428 3.05719C16.6927 2.80714 16.3536 2.66666 16 2.66666C15.6463 2.66666 15.3072 2.80714 15.0571 3.05719C14.8071 3.30724 14.6666 3.64638 14.6666 3.99999V5.45333C12.8038 5.76819 11.1126 6.7321 9.89243 8.17436C8.67224 9.61662 8.00183 11.4442 7.99992 13.3334V17.5734C7.22185 17.8485 6.54791 18.3575 6.0705 19.0306C5.59309 19.7038 5.33557 20.5081 5.33325 21.3334V24C5.33325 24.3537 5.47373 24.6928 5.72378 24.9428C5.97382 25.1929 6.31296 25.3334 6.66658 25.3334H10.8533C11.1603 26.4632 11.8306 27.4606 12.7607 28.1717C13.6908 28.8828 14.8291 29.268 16 29.268C17.1708 29.268 18.309 28.8828 19.2392 28.1717C20.1693 27.4606 20.8396 26.4632 21.1466 25.3334H25.3333C25.6869 25.3334 26.0261 25.1929 26.2761 24.9428C26.5262 24.6928 26.6666 24.3537 26.6666 24V21.3334C26.6643 20.5081 26.4068 19.7038 25.9294 19.0306C25.452 18.3575 24.778 17.8485 24 17.5734ZM10.6666 13.3334C10.6666 11.9188 11.2285 10.5623 12.2287 9.56209C13.2289 8.5619 14.5854 7.99999 16 7.99999C17.4145 7.99999 18.771 8.5619 19.7712 9.56209C20.7714 10.5623 21.3333 11.9188 21.3333 13.3334V17.3334H10.6666V13.3334ZM16 26.6667C15.5346 26.6639 15.078 26.5393 14.6757 26.3054C14.2734 26.0715 13.9393 25.7364 13.7066 25.3334H18.2933C18.0606 25.7364 17.7265 26.0715 17.3242 26.3054C16.9219 26.5393 16.4653 26.6639 16 26.6667ZM24 22.6667H7.99992V21.3334C7.99992 20.9797 8.14039 20.6406 8.39044 20.3906C8.64049 20.1405 8.97963 20 9.33325 20H22.6666C23.0203 20 23.3594 20.1405 23.6094 20.3906C23.8595 20.6406 24 20.9797 24 21.3334V22.6667Z" fill="#424C5D"/>
</svg>
