<svg width="16" height="16" viewBox="0 0 16 16" fill="none" xmlns="http://www.w3.org/2000/svg">
<path d="M4.99993 4.00001C4.80215 4.00001 4.60881 4.05866 4.44436 4.16854C4.27991 4.27842 4.15174 4.4346 4.07605 4.61732C4.00036 4.80005 3.98056 5.00112 4.01914 5.1951C4.05773 5.38908 4.15297 5.56726 4.29282 5.70712C4.43267 5.84697 4.61086 5.94221 4.80484 5.98079C4.99882 6.01938 5.19989 5.99957 5.38261 5.92389C5.56534 5.8482 5.72152 5.72003 5.8314 5.55558C5.94128 5.39113 5.99993 5.19779 5.99993 5.00001C5.99993 4.73479 5.89457 4.48044 5.70704 4.2929C5.5195 4.10536 5.26514 4.00001 4.99993 4.00001ZM14.08 7.14001L8.47326 1.52667C8.41097 1.46489 8.33709 1.416 8.25587 1.38283C8.17464 1.34965 8.08767 1.33283 7.99993 1.33334H1.99993C1.82312 1.33334 1.65355 1.40358 1.52852 1.5286C1.4035 1.65363 1.33326 1.8232 1.33326 2.00001V8.00001C1.33276 8.08775 1.34957 8.17472 1.38275 8.25595C1.41593 8.33717 1.46481 8.41105 1.5266 8.47334L7.13993 14.08C7.51493 14.4545 8.02326 14.6649 8.55326 14.6649C9.08326 14.6649 9.59159 14.4545 9.96659 14.08L14.08 10C14.4545 9.62501 14.6649 9.11668 14.6649 8.58668C14.6649 8.05667 14.4545 7.54834 14.08 7.17334V7.14001ZM13.14 9.02001L9.01993 13.1333C8.89502 13.2575 8.72605 13.3272 8.54993 13.3272C8.3738 13.3272 8.20484 13.2575 8.07993 13.1333L2.66659 7.72667V2.66667H7.72659L13.14 8.08001C13.2018 8.1423 13.2506 8.21618 13.2838 8.2974C13.317 8.37863 13.3338 8.4656 13.3333 8.55334C13.3326 8.72824 13.2631 8.89583 13.14 9.02001Z" fill="#359766"/>
</svg>
